<svg xmlns="http://www.w3.org/2000/svg" width="34" height="34" viewBox="0 0 34 34"><path d="M17,34A17,17,0,0,1,10.383,1.336,17,17,0,0,1,23.617,32.664,16.893,16.893,0,0,1,17,34ZM13.547,11.461a5.152,5.152,0,0,0-4.155,2.512,7.11,7.11,0,0,0-.845,4.5,12.51,12.51,0,0,0,1.985,5.5c.875,1.342,1.964,2.717,3.406,2.729h.029a3.187,3.187,0,0,0,1.414-.37,4.386,4.386,0,0,1,1.978-.472h.031a3.973,3.973,0,0,1,1.832.419l.1.046.007,0a3.046,3.046,0,0,0,1.384.37h.031c1.407-.011,2.543-1.464,3.469-2.883A14.286,14.286,0,0,0,25.5,21.4a4.322,4.322,0,0,1-2.007-1.554,4.5,4.5,0,0,1-.806-2.278,4.251,4.251,0,0,1,2.237-4.093,5.031,5.031,0,0,0-3.8-2.019,5.831,5.831,0,0,0-2.248.486,4.18,4.18,0,0,1-1.532.369,5,5,0,0,1-1.714-.4A5.889,5.889,0,0,0,13.547,11.461ZM20.731,6.8a4.674,4.674,0,0,0-3.024,1.637,4,4,0,0,0-.99,3.151H16.8a3.939,3.939,0,0,0,2.964-1.559A4.345,4.345,0,0,0,20.731,6.8Z" transform="translate(0 0)" fill="#bcbcbc"/></svg>