<svg xmlns="http://www.w3.org/2000/svg" width="293.727" height="293.303" viewBox="0 0 293.727 293.303"><g transform="translate(3.797 3.63)" opacity="0.9"><text transform="translate(56.21 70.48) rotate(-44.193)" fill="#bcbcbc" font-size="36" font-family="MaragsaDisplay, Maragsa"><tspan x="0" y="0">A</tspan></text><text transform="translate(80.24 49.03) rotate(-28.61)" fill="#bcbcbc" font-size="36" font-family="MaragsaDisplay, Maragsa"><tspan x="0" y="0">T</tspan></text><text transform="translate(94.7 40.98) rotate(-20.8)" fill="#bcbcbc" font-size="36" font-family="MaragsaDisplay, Maragsa"><tspan x="0" y="0">a</tspan></text><text transform="translate(108.44 35.48) rotate(-12.84)" fill="#bcbcbc" font-size="36" font-family="MaragsaDisplay, Maragsa"><tspan x="0" y="0">y</tspan></text><text transform="translate(125.91 31.73) rotate(-6.43)" fill="#bcbcbc" font-size="36" font-family="MaragsaDisplay, Maragsa"><tspan x="0" y="0">l</tspan></text><text transform="matrix(1, -0.016, 0.016, 1, 133.31, 30.69)" fill="#bcbcbc" font-size="36" font-family="MaragsaDisplay, Maragsa"><tspan x="0" y="0">o</tspan></text><text transform="matrix(0.991, 0.137, -0.137, 0.991, 150.85, 30.54)" fill="#bcbcbc" font-size="36" font-family="MaragsaDisplay, Maragsa"><tspan x="0" y="0">r</tspan></text><text transform="translate(175.07 34.6) rotate(22.225)" fill="#bcbcbc" font-size="36" font-family="MaragsaDisplay, Maragsa"><tspan x="0" y="0">G</tspan></text><text transform="matrix(0.854, 0.521, -0.521, 0.854, 193.82, 42.27)" fill="#bcbcbc" font-size="36" font-family="MaragsaDisplay, Maragsa"><tspan x="0" y="0">a</tspan></text><text transform="matrix(0.769, 0.639, -0.639, 0.769, 207.59, 50.45)" fill="#bcbcbc" font-size="36" font-family="MaragsaDisplay, Maragsa"><tspan x="0" y="0">n</tspan></text><text transform="matrix(0.661, 0.751, -0.751, 0.661, 221.12, 61.6)" fill="#bcbcbc" font-size="36" font-family="MaragsaDisplay, Maragsa"><tspan x="0" y="0">g</tspan></text><text transform="translate(238.77 83.44) rotate(62.668)" fill="#bcbcbc" font-size="36" font-family="MaragsaDisplay, Maragsa"><tspan x="0" y="0">a</tspan></text><text transform="matrix(0.322, 0.947, -0.947, 0.322, 246.3, 97.55)" fill="#bcbcbc" font-size="36" font-family="MaragsaDisplay, Maragsa"><tspan x="0" y="0">n</tspan></text><text transform="translate(252.05 114.06) rotate(80.05)" fill="#bcbcbc" font-size="36" font-family="MaragsaDisplay, Maragsa"><tspan x="0" y="0">d</tspan></text><text transform="translate(255.98 141.65) rotate(95.22)" fill="#bcbcbc" font-size="36" font-family="MaragsaDisplay, Maragsa"><tspan x="0" y="0">A</tspan></text><text transform="translate(253.9 162.52) rotate(103.339)" fill="#bcbcbc" font-size="36" font-family="MaragsaDisplay, Maragsa"><tspan x="0" y="0">t</tspan></text><text transform="matrix(-0.319, 0.948, -0.948, -0.319, 250.96, 174.62)" fill="#bcbcbc" font-size="36" font-family="MaragsaDisplay, Maragsa"><tspan x="0" y="0">l</tspan></text><text transform="translate(248.92 181.67) rotate(114.775)" fill="#bcbcbc" font-size="36" font-family="MaragsaDisplay, Maragsa"><tspan x="0" y="0">a</tspan></text><text transform="translate(242.44 196.28) rotate(123.215)" fill="#bcbcbc" font-size="36" font-family="MaragsaDisplay, Maragsa"><tspan x="0" y="0">n</tspan></text><text transform="translate(232.9 210.76) rotate(130.49)" fill="#bcbcbc" font-size="36" font-family="MaragsaDisplay, Maragsa"><tspan x="0" y="0">t</tspan></text><text transform="matrix(-0.714, 0.7, -0.7, -0.714, 224.77, 220.2)" fill="#bcbcbc" font-size="36" font-family="MaragsaDisplay, Maragsa"><tspan x="0" y="0">i</tspan></text><text transform="matrix(-0.778, 0.628, -0.628, -0.778, 219.51, 225.65)" fill="#bcbcbc" font-size="36" font-family="MaragsaDisplay, Maragsa"><tspan x="0" y="0">c</tspan></text><text transform="matrix(-0.907, 0.42, -0.42, -0.907, 200, 240.47)" fill="#bcbcbc" font-size="36" font-family="MaragsaDisplay, Maragsa"><tspan x="0" y="0">R</tspan></text><text transform="translate(182.85 248.39) rotate(163.19)" fill="#bcbcbc" font-size="36" font-family="MaragsaDisplay, Maragsa"><tspan x="0" y="0">e</tspan></text><text transform="translate(170.09 252.37) rotate(170.05)" fill="#bcbcbc" font-size="36" font-family="MaragsaDisplay, Maragsa"><tspan x="0" y="0">c</tspan></text><text transform="translate(157.13 254.92) rotate(177.77)" fill="#bcbcbc" font-size="36" font-family="MaragsaDisplay, Maragsa"><tspan x="0" y="0">o</tspan></text><text transform="translate(139.41 255.6) rotate(-174.34)" fill="#bcbcbc" font-size="36" font-family="MaragsaDisplay, Maragsa"><tspan x="0" y="0">r</tspan></text><text transform="translate(126.8 254.64) rotate(-167.01)" fill="#bcbcbc" font-size="36" font-family="MaragsaDisplay, Maragsa"><tspan x="0" y="0">d</tspan></text><text transform="translate(110.04 250.8) rotate(-158.839)" fill="#bcbcbc" font-size="36" font-family="MaragsaDisplay, Maragsa"><tspan x="0" y="0">s</tspan></text><text transform="translate(86.85 240.91) rotate(-145.12)" fill="#bcbcbc" font-size="36" font-family="MaragsaDisplay, Maragsa"><tspan x="0" y="0">P</tspan></text><text transform="matrix(-0.732, -0.682, 0.682, -0.732, 72.08, 230.58)" fill="#bcbcbc" font-size="36" font-family="MaragsaDisplay, Maragsa"><tspan x="0" y="0">r</tspan></text><text transform="matrix(-0.639, -0.769, 0.769, -0.639, 62.57, 222.16)" fill="#bcbcbc" font-size="36" font-family="MaragsaDisplay, Maragsa"><tspan x="0" y="0">o</tspan></text><text transform="translate(51.26 208.72) rotate(-120.89)" fill="#bcbcbc" font-size="36" font-family="MaragsaDisplay, Maragsa"><tspan x="0" y="0">d</tspan></text><text transform="matrix(-0.379, -0.925, 0.925, -0.379, 42.48, 194.37)" fill="#bcbcbc" font-size="36" font-family="MaragsaDisplay, Maragsa"><tspan x="0" y="0">u</tspan></text><text transform="translate(35.93 178.37) rotate(-104.35)" fill="#bcbcbc" font-size="36" font-family="MaragsaDisplay, Maragsa"><tspan x="0" y="0">c</tspan></text><text transform="translate(32.45 164.87) rotate(-97.68)" fill="#bcbcbc" font-size="36" font-family="MaragsaDisplay, Maragsa"><tspan x="0" y="0">t</tspan></text><text transform="matrix(-0.045, -0.999, 0.999, -0.045, 30.84, 152.52)" fill="#bcbcbc" font-size="36" font-family="MaragsaDisplay, Maragsa"><tspan x="0" y="0">i</tspan></text><text transform="translate(30.13 145.16) rotate(-86.24)" fill="#bcbcbc" font-size="36" font-family="MaragsaDisplay, Maragsa"><tspan x="0" y="0">o</tspan></text><text transform="matrix(0.219, -0.976, 0.976, 0.219, 31.13, 127.66)" fill="#bcbcbc" font-size="36" font-family="MaragsaDisplay, Maragsa"><tspan x="0" y="0">n</tspan></text><text transform="translate(34.99 110.44) rotate(-69.15)" fill="#bcbcbc" font-size="36" font-family="MaragsaDisplay, Maragsa"><tspan x="0" y="0">s</tspan></text><text transform="matrix(0.529, -0.849, 0.849, 0.529, 45.32, 86.96)" fill="#bcbcbc" font-size="36" font-family="MaragsaDisplay, Maragsa"><tspan x="0" y="0">!</tspan></text></g></svg>