<svg xmlns="http://www.w3.org/2000/svg" width="281.966" height="281.968" viewBox="0 0 281.966 281.968"><g transform="translate(2.9 2.8)"><text transform="matrix(0.769, -0.639, 0.639, 0.769, 57.11, 54.92)" fill="#bcbcbc" font-size="26" font-family="MaragsaDisplay, Maragsa"><tspan x="0" y="0">A</tspan></text><text transform="translate(76.14 39.97) rotate(-28.49)" fill="#bcbcbc" font-size="26.3" font-family="MaragsaDisplay, Maragsa"><tspan x="0" y="0">T</tspan></text><text transform="translate(87 33.97) rotate(-22.973)" fill="#bcbcbc" font-size="26.3" font-family="MaragsaDisplay, Maragsa"><tspan x="0" y="0">a</tspan></text><text transform="translate(97.21 29.52) rotate(-17.14)" fill="#bcbcbc" font-size="26.3" font-family="MaragsaDisplay, Maragsa"><tspan x="0" y="0">y</tspan></text><text transform="translate(109.98 25.71) rotate(-12.44)" fill="#bcbcbc" font-size="26.3" font-family="MaragsaDisplay, Maragsa"><tspan x="0" y="0">l</tspan></text><text transform="translate(115.38 24.32) rotate(-7.481)" fill="#bcbcbc" font-size="26" font-family="MaragsaDisplay, Maragsa"><tspan x="0" y="0">o</tspan></text><text transform="translate(128.55 22.56) rotate(-1.718)" fill="#bcbcbc" font-size="26.3" font-family="MaragsaDisplay, Maragsa"><tspan x="0" y="0">r</tspan></text><text transform="translate(147.11 22.37) rotate(8.616)" fill="#bcbcbc" font-size="26" font-family="MaragsaDisplay, Maragsa"><tspan x="0" y="0">G</tspan></text><text transform="translate(162.14 24.61) rotate(15.005)" fill="#bcbcbc" font-size="26" font-family="MaragsaDisplay, Maragsa"><tspan x="0" y="0">a</tspan></text><text transform="translate(173.77 27.67) rotate(21.4)" fill="#bcbcbc" font-size="26.3" font-family="MaragsaDisplay, Maragsa"><tspan x="0" y="0">n</tspan></text><text transform="translate(186.04 32.42) rotate(27.86)" fill="#bcbcbc" font-size="26.3" font-family="MaragsaDisplay, Maragsa"><tspan x="0" y="0">g</tspan></text><text transform="matrix(0.849, 0.529, -0.529, 0.849, 197.63, 38.71)" fill="#bcbcbc" font-size="26" font-family="MaragsaDisplay, Maragsa"><tspan x="0" y="0">,</tspan></text><text transform="translate(207.74 45.21) rotate(40.78)" fill="#bcbcbc" font-size="26.3" font-family="MaragsaDisplay, Maragsa"><tspan x="0" y="0">R</tspan></text><text transform="matrix(0.682, 0.732, -0.732, 0.682, 218.4, 54.34)" fill="#bcbcbc" font-size="26" font-family="MaragsaDisplay, Maragsa"><tspan x="0" y="0">o</tspan></text><text transform="matrix(0.6, 0.8, -0.8, 0.6, 227.3, 63.98)" fill="#bcbcbc" font-size="26.3" font-family="MaragsaDisplay, Maragsa"><tspan x="0" y="0">s</tspan></text><text transform="matrix(0.529, 0.849, -0.849, 0.529, 233.85, 72.72)" fill="#bcbcbc" font-size="26" font-family="MaragsaDisplay, Maragsa"><tspan x="0" y="0">t</tspan></text><text transform="translate(238.75 80.45) rotate(62.92)" fill="#bcbcbc" font-size="26.3" font-family="MaragsaDisplay, Maragsa"><tspan x="0" y="0">r</tspan></text><text transform="translate(243.58 89.65) rotate(68.72)" fill="#bcbcbc" font-size="26.3" font-family="MaragsaDisplay, Maragsa"><tspan x="0" y="0">u</tspan></text><text transform="translate(248.48 101.29) rotate(76.661)" fill="#bcbcbc" font-size="26" font-family="MaragsaDisplay, Maragsa"><tspan x="0" y="0">m</tspan></text><text transform="matrix(0.016, 1, -1, 0.016, 253.81, 128.91)" fill="#bcbcbc" font-size="26.3" font-family="MaragsaDisplay, Maragsa"><tspan x="0" y="0">R</tspan></text><text transform="translate(253.98 143.02) rotate(95.11)" fill="#bcbcbc" font-size="26.3" font-family="MaragsaDisplay, Maragsa"><tspan x="0" y="0">e</tspan></text><text transform="matrix(-0.175, 0.985, -0.985, -0.175, 253.14, 153.02)" fill="#bcbcbc" font-size="26.3" font-family="MaragsaDisplay, Maragsa"><tspan x="0" y="0">c</tspan></text><text transform="translate(251.52 162.88) rotate(105.79)" fill="#bcbcbc" font-size="26.3" font-family="MaragsaDisplay, Maragsa"><tspan x="0" y="0">o</tspan></text><text transform="translate(247.89 175.63) rotate(111.67)" fill="#bcbcbc" font-size="26.3" font-family="MaragsaDisplay, Maragsa"><tspan x="0" y="0">r</tspan></text><text transform="translate(244.5 184.55) rotate(117.04)" fill="#bcbcbc" font-size="26.3" font-family="MaragsaDisplay, Maragsa"><tspan x="0" y="0">d</tspan></text><text transform="translate(238.63 196.04) rotate(122.9)" fill="#bcbcbc" font-size="26.3" font-family="MaragsaDisplay, Maragsa"><tspan x="0" y="0">s</tspan></text><text transform="matrix(-0.677, 0.736, -0.736, -0.677, 227.8, 211.72)" fill="#bcbcbc" font-size="26" font-family="MaragsaDisplay, Maragsa"><tspan x="0" y="0">a</tspan></text><text transform="matrix(-0.75, 0.66, -0.66, -0.75, 219.71, 220.64)" fill="#bcbcbc" font-size="26.3" font-family="MaragsaDisplay, Maragsa"><tspan x="0" y="0">n</tspan></text><text transform="matrix(-0.821, 0.571, -0.571, -0.821, 209.83, 229.35)" fill="#bcbcbc" font-size="26" font-family="MaragsaDisplay, Maragsa"><tspan x="0" y="0">d</tspan></text><text transform="translate(192.34 240.86) rotate(156.38)" fill="#bcbcbc" font-size="26.3" font-family="MaragsaDisplay, Maragsa"><tspan x="0" y="0">A</tspan></text><text transform="translate(177.94 247.04) rotate(162.39)" fill="#bcbcbc" font-size="26.3" font-family="MaragsaDisplay, Maragsa"><tspan x="0" y="0">t</tspan></text><text transform="matrix(-0.97, 0.24, -0.24, -0.97, 169.04, 249.82)" fill="#bcbcbc" font-size="26.3" font-family="MaragsaDisplay, Maragsa"><tspan x="0" y="0">l</tspan></text><text transform="translate(163.64 251.32) rotate(170.59)" fill="#bcbcbc" font-size="26.3" font-family="MaragsaDisplay, Maragsa"><tspan x="0" y="0">a</tspan></text><text transform="matrix(-0.998, 0.056, -0.056, -0.998, 151.78, 253.37)" fill="#bcbcbc" font-size="26.3" font-family="MaragsaDisplay, Maragsa"><tspan x="0" y="0">n</tspan></text><text transform="matrix(-1, -0.04, 0.04, -1, 138.79, 254.05)" fill="#bcbcbc" font-size="26.3" font-family="MaragsaDisplay, Maragsa"><tspan x="0" y="0">t</tspan></text><text transform="translate(129.48 253.67) rotate(-174.232)" fill="#bcbcbc" font-size="26" font-family="MaragsaDisplay, Maragsa"><tspan x="0" y="0">i</tspan></text><text transform="translate(123.75 253.2) rotate(-170.18)" fill="#bcbcbc" font-size="26.3" font-family="MaragsaDisplay, Maragsa"><tspan x="0" y="0">c</tspan></text><text transform="translate(105.63 249.61) rotate(-159.82)" fill="#bcbcbc" font-size="26.3" font-family="MaragsaDisplay, Maragsa"><tspan x="0" y="0">R</tspan></text><text transform="translate(92.35 244.7) rotate(-153.947)" fill="#bcbcbc" font-size="26" font-family="MaragsaDisplay, Maragsa"><tspan x="0" y="0">e</tspan></text><text transform="translate(83.32 240.34) rotate(-148.97)" fill="#bcbcbc" font-size="26.3" font-family="MaragsaDisplay, Maragsa"><tspan x="0" y="0">c</tspan></text><text transform="matrix(-0.8, -0.6, 0.6, -0.8, 74.71, 235.31)" fill="#bcbcbc" font-size="26.3" font-family="MaragsaDisplay, Maragsa"><tspan x="0" y="0">o</tspan></text><text transform="translate(64.08 227.36) rotate(-137.5)" fill="#bcbcbc" font-size="26.3" font-family="MaragsaDisplay, Maragsa"><tspan x="0" y="0">r</tspan></text><text transform="translate(56.93 221) rotate(-132.158)" fill="#bcbcbc" font-size="26" font-family="MaragsaDisplay, Maragsa"><tspan x="0" y="0">d</tspan></text><text transform="matrix(-0.593, -0.805, 0.805, -0.593, 48.27, 211.43)" fill="#bcbcbc" font-size="26.3" font-family="MaragsaDisplay, Maragsa"><tspan x="0" y="0">s</tspan></text><text transform="translate(37.43 195.83) rotate(-116.29)" fill="#bcbcbc" font-size="26.3" font-family="MaragsaDisplay, Maragsa"><tspan x="0" y="0">P</tspan></text><text transform="translate(31.48 183.73) rotate(-110.36)" fill="#bcbcbc" font-size="26.3" font-family="MaragsaDisplay, Maragsa"><tspan x="0" y="0">r</tspan></text><text transform="matrix(-0.257, -0.967, 0.967, -0.257, 28.01, 174.81)" fill="#bcbcbc" font-size="26.3" font-family="MaragsaDisplay, Maragsa"><tspan x="0" y="0">o</tspan></text><text transform="translate(24.58 162.08) rotate(-98.616)" fill="#bcbcbc" font-size="26" font-family="MaragsaDisplay, Maragsa"><tspan x="0" y="0">d</tspan></text><text transform="matrix(-0.04, -1, 1, -0.04, 22.66, 149.55)" fill="#bcbcbc" font-size="26.3" font-family="MaragsaDisplay, Maragsa"><tspan x="0" y="0">u</tspan></text><text transform="matrix(0.061, -0.998, 0.998, 0.061, 22.19, 136.56)" fill="#bcbcbc" font-size="26.3" font-family="MaragsaDisplay, Maragsa"><tspan x="0" y="0">c</tspan></text><text transform="translate(22.82 126.13) rotate(-81.68)" fill="#bcbcbc" font-size="26.3" font-family="MaragsaDisplay, Maragsa"><tspan x="0" y="0">t</tspan></text><text transform="translate(24.21 116.91) rotate(-77.905)" fill="#bcbcbc" font-size="26" font-family="MaragsaDisplay, Maragsa"><tspan x="0" y="0">i</tspan></text><text transform="translate(25.2 111.35) rotate(-73.191)" fill="#bcbcbc" font-size="26" font-family="MaragsaDisplay, Maragsa"><tspan x="0" y="0">o</tspan></text><text transform="translate(28.95 98.75) rotate(-66.63)" fill="#bcbcbc" font-size="26.3" font-family="MaragsaDisplay, Maragsa"><tspan x="0" y="0">n</tspan></text><text transform="translate(34.21 86.6) rotate(-60.611)" fill="#bcbcbc" font-size="26" font-family="MaragsaDisplay, Maragsa"><tspan x="0" y="0">s</tspan></text><text transform="translate(44.26 70.18) rotate(-52.326)" fill="#bcbcbc" font-size="26" font-family="MaragsaDisplay, Maragsa"><tspan x="0" y="0">!</tspan></text></g></svg>