<svg xmlns="http://www.w3.org/2000/svg" width="299.94" height="300.22" viewBox="0 0 299.94 300.22"><g transform="translate(4.388 4.63)"><text transform="matrix(0.783, -0.622, 0.622, 0.783, 67.26, 66.22)" fill="#bcbcbc" font-size="41" font-family="MaragsaDisplay, Maragsa"><tspan x="0" y="0">T</tspan></text><text transform="translate(81.68 54.44) rotate(-29.85)" fill="#bcbcbc" font-size="41" font-family="MaragsaDisplay, Maragsa"><tspan x="0" y="0">a</tspan></text><text transform="translate(95.88 45.87) rotate(-20.82)" fill="#bcbcbc" font-size="41" font-family="MaragsaDisplay, Maragsa"><tspan x="0" y="0">y</tspan></text><text transform="translate(114.8 38.97) rotate(-13.339)" fill="#bcbcbc" font-size="41" font-family="MaragsaDisplay, Maragsa"><tspan x="0" y="0">l</tspan></text><text transform="translate(122.52 36.6) rotate(-6.12)" fill="#bcbcbc" font-size="41" font-family="MaragsaDisplay, Maragsa"><tspan x="0" y="0">o</tspan></text><text transform="translate(142.33 34.48) rotate(2.862)" fill="#bcbcbc" font-size="41" font-family="MaragsaDisplay, Maragsa"><tspan x="0" y="0">r</tspan></text><text transform="matrix(0.944, 0.331, -0.331, 0.944, 169.76, 36.71)" fill="#bcbcbc" font-size="41" font-family="MaragsaDisplay, Maragsa"><tspan x="0" y="0">G</tspan></text><text transform="translate(191.3 44.17) rotate(29.64)" fill="#bcbcbc" font-size="41" font-family="MaragsaDisplay, Maragsa"><tspan x="0" y="0">a</tspan></text><text transform="translate(207.02 52.8) rotate(39.33)" fill="#bcbcbc" font-size="41" font-family="MaragsaDisplay, Maragsa"><tspan x="0" y="0">n</tspan></text><text transform="translate(222.37 65.13) rotate(49.29)" fill="#bcbcbc" font-size="41" font-family="MaragsaDisplay, Maragsa"><tspan x="0" y="0">g</tspan></text><text transform="translate(241.76 90.62) rotate(62.668)" fill="#bcbcbc" font-size="41" font-family="MaragsaDisplay, Maragsa"><tspan x="0" y="0">i</tspan></text><text transform="matrix(0.296, 0.955, -0.955, 0.296, 246.31, 96.85)" fill="#bcbcbc" font-size="41" font-family="MaragsaDisplay, Maragsa"><tspan x="0" y="0">m</tspan></text><text transform="translate(254.92 125.54) rotate(85.42)" fill="#bcbcbc" font-size="41" font-family="MaragsaDisplay, Maragsa"><tspan x="0" y="0">p</tspan></text><text transform="translate(256.5 145.25) rotate(94.37)" fill="#bcbcbc" font-size="41" font-family="MaragsaDisplay, Maragsa"><tspan x="0" y="0">r</tspan></text><text transform="matrix(-0.19, 0.982, -0.982, -0.19, 255.15, 161.24)" fill="#bcbcbc" font-size="41" font-family="MaragsaDisplay, Maragsa"><tspan x="0" y="0">i</tspan></text><text transform="translate(254.13 169.38) rotate(108.1)" fill="#bcbcbc" font-size="41" font-family="MaragsaDisplay, Maragsa"><tspan x="0" y="0">n</tspan></text><text transform="matrix(-0.446, 0.895, -0.895, -0.446, 248.03, 187.89)" fill="#bcbcbc" font-size="41" font-family="MaragsaDisplay, Maragsa"><tspan x="0" y="0">t</tspan></text><text transform="matrix(-0.657, 0.754, -0.754, -0.657, 235.65, 210.45)" fill="#bcbcbc" font-size="41" font-family="MaragsaDisplay, Maragsa"><tspan x="0" y="0">a</tspan></text><text transform="matrix(-0.774, 0.633, -0.633, -0.774, 224.08, 224.16)" fill="#bcbcbc" font-size="41" font-family="MaragsaDisplay, Maragsa"><tspan x="0" y="0">n</tspan></text><text transform="translate(208.97 236.77) rotate(150.69)" fill="#bcbcbc" font-size="41" font-family="MaragsaDisplay, Maragsa"><tspan x="0" y="0">d</tspan></text><text transform="translate(181.18 251) rotate(167.74)" fill="#bcbcbc" font-size="41" font-family="MaragsaDisplay, Maragsa"><tspan x="0" y="0">R</tspan></text><text transform="matrix(-1, 0.04, -0.04, -1, 160.67, 255.67)" fill="#bcbcbc" font-size="41" font-family="MaragsaDisplay, Maragsa"><tspan x="0" y="0">o</tspan></text><text transform="matrix(-0.993, -0.121, 0.121, -0.993, 140.99, 256.44)" fill="#bcbcbc" font-size="41" font-family="MaragsaDisplay, Maragsa"><tspan x="0" y="0">s</tspan></text><text transform="translate(124.78 254.5) rotate(-165.548)" fill="#bcbcbc" font-size="41" font-family="MaragsaDisplay, Maragsa"><tspan x="0" y="0">t</tspan></text><text transform="translate(111.59 251.25) rotate(-157.67)" fill="#bcbcbc" font-size="41" font-family="MaragsaDisplay, Maragsa"><tspan x="0" y="0">r</tspan></text><text transform="translate(97.19 245.68) rotate(-148.63)" fill="#bcbcbc" font-size="41" font-family="MaragsaDisplay, Maragsa"><tspan x="0" y="0">u</tspan></text><text transform="translate(80.72 236.75) rotate(-136.15)" fill="#bcbcbc" font-size="41" font-family="MaragsaDisplay, Maragsa"><tspan x="0" y="0">m</tspan></text><text transform="translate(51.98 206.02) rotate(-116.61)" fill="#bcbcbc" font-size="41" font-family="MaragsaDisplay, Maragsa"><tspan x="0" y="0">R</tspan></text><text transform="translate(42.47 187.02) rotate(-107.526)" fill="#bcbcbc" font-size="41" font-family="MaragsaDisplay, Maragsa"><tspan x="0" y="0">e</tspan></text><text transform="translate(37.82 172.79) rotate(-99.744)" fill="#bcbcbc" font-size="41" font-family="MaragsaDisplay, Maragsa"><tspan x="0" y="0">c</tspan></text><text transform="matrix(-0.016, -1, 1, -0.016, 34.98, 158.25)" fill="#bcbcbc" font-size="41" font-family="MaragsaDisplay, Maragsa"><tspan x="0" y="0">o</tspan></text><text transform="translate(34.66 138.35) rotate(-81.85)" fill="#bcbcbc" font-size="41" font-family="MaragsaDisplay, Maragsa"><tspan x="0" y="0">r</tspan></text><text transform="translate(36.27 124.27) rotate(-73.74)" fill="#bcbcbc" font-size="41" font-family="MaragsaDisplay, Maragsa"><tspan x="0" y="0">d</tspan></text><text transform="translate(41.72 105.75) rotate(-64.29)" fill="#bcbcbc" font-size="41" font-family="MaragsaDisplay, Maragsa"><tspan x="0" y="0">s</tspan></text><text transform="matrix(0.626, -0.78, 0.78, 0.626, 55.67, 80.51)" fill="#bcbcbc" font-size="41" font-family="MaragsaDisplay, Maragsa"><tspan x="0" y="0">!</tspan></text></g></svg>