<svg xmlns="http://www.w3.org/2000/svg" width="293.305" height="293.222" viewBox="0 0 293.305 293.222"><g transform="translate(3.515 3.624)"><text transform="matrix(0.783, -0.622, 0.622, 0.783, 63.73, 62.36)" fill="#bcbcbc" font-size="36" font-family="MaragsaDisplay, Maragsa"><tspan x="0" y="0">A</tspan></text><text transform="matrix(0.862, -0.507, 0.507, 0.862, 80.23, 49.41)" fill="#bcbcbc" font-size="36" font-family="MaragsaDisplay, Maragsa"><tspan x="0" y="0">t</tspan></text><text transform="matrix(0.902, -0.431, 0.431, 0.902, 91.01, 43.15)" fill="#bcbcbc" font-size="36" font-family="MaragsaDisplay, Maragsa"><tspan x="0" y="0">l</tspan></text><text transform="matrix(0.944, -0.331, 0.331, 0.944, 97.48, 39.73)" fill="#bcbcbc" font-size="36" font-family="MaragsaDisplay, Maragsa"><tspan x="0" y="0">a</tspan></text><text transform="matrix(0.983, -0.185, 0.185, 0.983, 112.53, 34.27)" fill="#bcbcbc" font-size="36" font-family="MaragsaDisplay, Maragsa"><tspan x="0" y="0">n</tspan></text><text transform="matrix(0.998, -0.058, 0.058, 0.998, 129.57, 31.13)" fill="#bcbcbc" font-size="36" font-family="MaragsaDisplay, Maragsa"><tspan x="0" y="0">t</tspan></text><text transform="translate(142.03 30.46) rotate(1.718)" fill="#bcbcbc" font-size="36" font-family="MaragsaDisplay, Maragsa"><tspan x="0" y="0">i</tspan></text><text transform="translate(149.6 30.47) rotate(7.481)" fill="#bcbcbc" font-size="36" font-family="MaragsaDisplay, Maragsa"><tspan x="0" y="0">c</tspan></text><text transform="matrix(0.931, 0.364, -0.364, 0.931, 173.79, 34.26)" fill="#bcbcbc" font-size="36" font-family="MaragsaDisplay, Maragsa"><tspan x="0" y="0">R</tspan></text><text transform="translate(191.38 41.17) rotate(29.389)" fill="#bcbcbc" font-size="36" font-family="MaragsaDisplay, Maragsa"><tspan x="0" y="0">e</tspan></text><text transform="translate(203.08 47.63) rotate(36.19)" fill="#bcbcbc" font-size="36" font-family="MaragsaDisplay, Maragsa"><tspan x="0" y="0">c</tspan></text><text transform="matrix(0.721, 0.693, -0.693, 0.721, 213.9, 55.2)" fill="#bcbcbc" font-size="36" font-family="MaragsaDisplay, Maragsa"><tspan x="0" y="0">o</tspan></text><text transform="translate(226.68 67.51) rotate(51.875)" fill="#bcbcbc" font-size="36" font-family="MaragsaDisplay, Maragsa"><tspan x="0" y="0">r</tspan></text><text transform="translate(234.72 77.28) rotate(59.331)" fill="#bcbcbc" font-size="36" font-family="MaragsaDisplay, Maragsa"><tspan x="0" y="0">d</tspan></text><text transform="translate(243.55 92.03) rotate(67.18)" fill="#bcbcbc" font-size="36" font-family="MaragsaDisplay, Maragsa"><tspan x="0" y="0">s</tspan></text><text transform="translate(249.17 105.82) rotate(72.3)" fill="#bcbcbc" font-size="36" font-family="MaragsaDisplay, Maragsa"><tspan x="0" y="0">,</tspan></text><text transform="translate(253.77 120.88) rotate(84.289)" fill="#bcbcbc" font-size="36" font-family="MaragsaDisplay, Maragsa"><tspan x="0" y="0">R</tspan></text><text transform="translate(255.76 139.53) rotate(93.14)" fill="#bcbcbc" font-size="36" font-family="MaragsaDisplay, Maragsa"><tspan x="0" y="0">o</tspan></text><text transform="matrix(-0.193, 0.981, -0.981, -0.193, 254.83, 156.99)" fill="#bcbcbc" font-size="36" font-family="MaragsaDisplay, Maragsa"><tspan x="0" y="0">s</tspan></text><text transform="translate(252.03 171.27) rotate(107.99)" fill="#bcbcbc" font-size="36" font-family="MaragsaDisplay, Maragsa"><tspan x="0" y="0">t</tspan></text><text transform="matrix(-0.418, 0.909, -0.909, -0.418, 248.42, 182.84)" fill="#bcbcbc" font-size="36" font-family="MaragsaDisplay, Maragsa"><tspan x="0" y="0">r</tspan></text><text transform="matrix(-0.539, 0.842, -0.842, -0.539, 242.88, 195.47)" fill="#bcbcbc" font-size="36" font-family="MaragsaDisplay, Maragsa"><tspan x="0" y="0">u</tspan></text><text transform="matrix(-0.692, 0.722, -0.722, -0.692, 234.45, 209.94)" fill="#bcbcbc" font-size="36" font-family="MaragsaDisplay, Maragsa"><tspan x="0" y="0">m</tspan></text><text transform="translate(207.36 235.79) rotate(150.611)" fill="#bcbcbc" font-size="36" font-family="MaragsaDisplay, Maragsa"><tspan x="0" y="0">R</tspan></text><text transform="translate(190.87 245.01) rotate(158.73)" fill="#bcbcbc" font-size="36" font-family="MaragsaDisplay, Maragsa"><tspan x="0" y="0">e</tspan></text><text transform="translate(178.48 249.96) rotate(165.59)" fill="#bcbcbc" font-size="36" font-family="MaragsaDisplay, Maragsa"><tspan x="0" y="0">c</tspan></text><text transform="translate(165.75 253.52) rotate(173.38)" fill="#bcbcbc" font-size="36" font-family="MaragsaDisplay, Maragsa"><tspan x="0" y="0">o</tspan></text><text transform="translate(148.14 255.54) rotate(-178.854)" fill="#bcbcbc" font-size="36" font-family="MaragsaDisplay, Maragsa"><tspan x="0" y="0">r</tspan></text><text transform="matrix(-0.989, -0.148, 0.148, -0.989, 135.48, 255.55)" fill="#bcbcbc" font-size="36" font-family="MaragsaDisplay, Maragsa"><tspan x="0" y="0">d</tspan></text><text transform="translate(118.47 253.02) rotate(-163.4)" fill="#bcbcbc" font-size="36" font-family="MaragsaDisplay, Maragsa"><tspan x="0" y="0">s</tspan></text><text transform="matrix(-0.853, -0.522, 0.522, -0.853, 94.69, 245.26)" fill="#bcbcbc" font-size="36" font-family="MaragsaDisplay, Maragsa"><tspan x="0" y="0">&amp;</tspan></text><text transform="matrix(-0.653, -0.757, 0.757, -0.653, 67.31, 227.38)" fill="#bcbcbc" font-size="36" font-family="MaragsaDisplay, Maragsa"><tspan x="0" y="0">M</tspan></text><text transform="translate(50.09 206.96) rotate(-119.887)" fill="#bcbcbc" font-size="36" font-family="MaragsaDisplay, Maragsa"><tspan x="0" y="0">a</tspan></text><text transform="matrix(-0.413, -0.911, 0.911, -0.413, 42.2, 193.06)" fill="#bcbcbc" font-size="36" font-family="MaragsaDisplay, Maragsa"><tspan x="0" y="0">j</tspan></text><text transform="matrix(-0.31, -0.951, 0.951, -0.31, 39.05, 187.05)" fill="#bcbcbc" font-size="36" font-family="MaragsaDisplay, Maragsa"><tspan x="0" y="0">o</tspan></text><text transform="translate(33.59 170.23) rotate(-99.98)" fill="#bcbcbc" font-size="36" font-family="MaragsaDisplay, Maragsa"><tspan x="0" y="0">r</tspan></text><text transform="translate(30.48 145.2) rotate(-88.96)" fill="#bcbcbc" font-size="36" font-family="MaragsaDisplay, Maragsa"><tspan x="0" y="0">l</tspan></text><text transform="matrix(0.123, -0.992, 0.992, 0.123, 30.31, 137.85)" fill="#bcbcbc" font-size="36" font-family="MaragsaDisplay, Maragsa"><tspan x="0" y="0">a</tspan></text><text transform="translate(32.04 122.28) rotate(-74.846)" fill="#bcbcbc" font-size="36" font-family="MaragsaDisplay, Maragsa"><tspan x="0" y="0">b</tspan></text><text transform="translate(36.52 105.89) rotate(-67.027)" fill="#bcbcbc" font-size="36" font-family="MaragsaDisplay, Maragsa"><tspan x="0" y="0">e</tspan></text><text transform="translate(42.15 92.98) rotate(-61.37)" fill="#bcbcbc" font-size="36" font-family="MaragsaDisplay, Maragsa"><tspan x="0" y="0">l</tspan></text><text transform="matrix(0.62, -0.784, 0.784, 0.62, 51.8, 76.99)" fill="#bcbcbc" font-size="36" font-family="MaragsaDisplay, Maragsa"><tspan x="0" y="0">!</tspan></text></g></svg>