<svg xmlns="http://www.w3.org/2000/svg" width="32.274" height="32.271" viewBox="0 0 32.274 32.271"><g transform="translate(-499.508 -997.503)"><g transform="translate(499.508 997.503)"><path d="M16.137,32.271c-5.238,0-5.863-.02-7.954-.115a10.917,10.917,0,0,1-3.655-.68A6.1,6.1,0,0,1,2.264,30,6.08,6.08,0,0,1,.792,27.743a10.866,10.866,0,0,1-.678-3.654C.02,22.023,0,21.4,0,16.133s.02-5.887.113-7.952A10.89,10.89,0,0,1,.792,4.526,6.071,6.071,0,0,1,2.264,2.263,6.126,6.126,0,0,1,4.527.789,10.917,10.917,0,0,1,8.183.111C10.02.028,10.712,0,14.372,0c.169,0,.351,0,.512,0h1.253c5.3,0,5.915.02,7.954.112A10.9,10.9,0,0,1,27.747.8a6.08,6.08,0,0,1,2.262,1.473,6.126,6.126,0,0,1,1.474,2.263,10.947,10.947,0,0,1,.678,3.654c.094,2.066.113,2.687.113,7.953s-.02,5.887-.113,7.952a10.946,10.946,0,0,1-.678,3.654,6.528,6.528,0,0,1-3.736,3.733,10.839,10.839,0,0,1-3.655.68C22,32.251,21.376,32.271,16.137,32.271Zm0-26.238A10.108,10.108,0,1,0,26.245,16.143,10.12,10.12,0,0,0,16.137,6.033ZM26.645,3.272l0,0a2.361,2.361,0,1,0,2.367,2.36A2.362,2.362,0,0,0,26.641,3.275Z" transform="translate(0)" fill="#bcbcbc"/><path d="M6.562,0A6.562,6.562,0,1,1,0,6.562,6.562,6.562,0,0,1,6.562,0Z" transform="translate(9.576 9.581)" fill="#bcbcbc"/></g></g></svg>