<svg xmlns="http://www.w3.org/2000/svg" width="1912.774" height="250.088" viewBox="0 0 1912.774 250.088">
  <g id="banner-heading" transform="translate(-189.989 -418.073)" opacity="0.7">
    <g id="Group_222" data-name="Group 222" transform="translate(191.423 419.742)">
      <path id="Path_336" data-name="Path 336" d="M398.253,657.62c-25.145-3.364-28.276-13.727-32.586-22-5.586-11.148-9.2-23.439-14.537-35.25-2.885-6.274-5.758-12.511-8.656-18.81-2.235-5.267-6.962-10.178-7.4-16.575-.11-1.5-5.353-6.7-6.323-7.833-1.437,2.406-2.677,5.083-4.224,7.342-3,4.322-4.4,9.073-7.244,13.15-.872,1.13-5.93,13.948-6.249,14.684-1.13,2.407-1.215,3.2-9.135.9,4.653,4.027,5.316,6.9,4.494,9.221s2.357,56.306-28.239,56.306c-2.591,0-25.219-.54-33.457,0-28.165,0-33.138-27.724-35.385-40.259-2.419-13.862-2.2-28.129-3.708-42.371-.8-7.44-1.707-14.93-2.247-22.518-.43-6.237-3.278-12.916-1.584-19.473.381-1.572,1.719-2.861,1.326-3.745-.172-.417-2.247-1.5-2.529-2.026-1.044-1.9-2.3-3.512-2.677-5.574-1.24-6.826-1.473-13.96-1.829-21.056-.81-15.225-2.185-30.535-3.647-46.5-.6-5.955-5.144-21.867,11.946-27.613m53.482-2.014c6,2.32,6.028,6.888,6.495,9.773,2.222,13.432-.43,28.227.982,43.23,1.056,11.148,6.691,48.756,8.152,60.223,2-3.315,12.266-32.917,13.211-36.625,5.009-19.6,14.046-45.895,31.1-45.723,3.782.049,7.514.921,11.271,1.363,3.082-.54,6.213-.921,9.258-1.67,31.665-7.625,35.017,25.256,40.1,37.435,4.334,10.375,10.694,20.578,15.986,31.861a16.413,16.413,0,0,1,1.007-2.48c.823-1.387,2.456-2.247,2.345-3.217-.049-.467-1.719-2.161-1.842-2.75-.442-2.149-1.191-4.113-.945-6.225.8-6.949,2.652-13.874,4.346-20.688,3.659-14.7,6.63-29.32,9.024-44.151,1.031-6.4,2.259-24.126,16.342-23.991,10.252,1.854,20.541,3.315,30.818,4.9,4.85.737,14.512,1.4,19.018,3,9.982,3.548,8.619,10.4,8.361,14.316-1.044,15.421-7.747,29.762-10.719,44.814-3.033,15.372-3.954,31.026-7.686,46.3-1.314,5.537-1.24,11.283-2.578,16.833-.368,1.4-1.5,17.938-1.621,18.982-.491,3.266-.381,4.273-8.644,4.616,11.2,5.709,5.415,12.634,3.6,18-2.517,7.674-1.682,15.7-1.989,23.6-.135,3.02-4.592,34.8-21.707,40.456" transform="translate(-191.423 -419.197)" fill="none" stroke="#bcbcbc" stroke-miterlimit="10" stroke-width="3"/>
      <path id="Path_337" data-name="Path 337" d="M508.886,425.478c15.519,6.2,12.757,20.909,12.757,24.335,0,2.456-2.787,4.015-3.671,6.09-1.314,3.094,2.517,3.315,3.708,6.581,1.056,2.922-3.855,5.525-4.555,8.337-.859,3.352,2.726,6.458,2.652,9.884-.2,8.153-1.94,1.743.209,9.847,1.5,5.66,3.033,20.394,3.192,23.807.062,1.093-.786,18.208-.626,19.681.786,5.881.614,49.873,1.093,65.883.479,15.679.258,58.308-30.891,58.271-3.376-.086-6.74-.184-10.117-.27-2.775-.061-5.55-.209-8.337-.209-31.112,0-30.4-20.786-30.265-27.257a373.143,373.143,0,0,0-1.572-44.52c-.663-6.851-1.535-13.813-1.289-20.6.1-2.063,1.228-3.831,2.075-5.844.221-.565-.577-18.957-1.179-25.194-.675-7.576-.958-15.114-1.314-22.665-.712-14.4-3.29-28.693-2.615-43.059.258-5.046.945-10.215,1.51-15.4.7-6.606.393-23.009,16.023-28.927" transform="translate(-136.899 -418.677)" fill="none" stroke="#bcbcbc" stroke-miterlimit="10" stroke-width="3"/>
      <path id="Path_338" data-name="Path 338" d="M672.35,653.82c-6.2,5.906-13.8,3.585-18.589,4.248-10.24,1.387-20.565-.332-30.867-.43-5.39-.049-10.792-.037-16.195-.442-4.457-.344-9.331,1.682-13.825-.872-1.056-.614-1.866-2.124-2.5-1.842-.282.135-1.2,2.1-1.584,2.32-1.387.81-2.6,1.879-4.064,2a50.21,50.21,0,0,1-7.563-.061,8.981,8.981,0,0,1-3.487-.331c-1.191-.135-2.37-.233-3.561-.344a195.985,195.985,0,0,0-31.174-.553c-4.481.282-30.744-17.263-19.46-48.068,1.719-4.7,27.846-50.155,34.562-61.88,3.708-6.532,7.367-13.1,11.345-19.534,3.3-5.267,4.85-12.29,10.006-16.5,1.216-.995,3.02-1.2,3.229-2.149.1-.43-.945-2.578-.884-3.168.258-2.136.172-4.174,1.044-6.041.2-.43.466-.823.675-1.252-3.131-.135-6.262-.405-9.38-.712-10.473-1.007-51.211,11.148-51.211-28.092,0-5.279-1.142-10.522-1.142-15.8,0-33.175,29.135-29.516,40.136-29.381,11.259.147,22.395-1.694,33.678-.442,4.089.467,8.128-.577,12.216-.037.884.1,9.515-.847,12.56-1.117.16-1.166,20.259-2.1,34.108-2.1,21.069,0,27.859,6.065,30.093,11.111m1.719,35.544c-4.162,14.525-37.669,66.485-45.895,79.155-3.18,4.9-5.071,10.5-8.349,15.347-.786,1.24-7.895,16.735-8.447,17.656-1.67,2.959,10.387,3.892,14.39,5,5.7,1.572,11.271-.368,16.87-.97,2.357-.245,4.715,2.836,6.962,1.879,1.51-.651,16.391-7.318,22.395,6.25" transform="translate(-119.608 -419.363)" fill="none" stroke="#bcbcbc" stroke-miterlimit="10" stroke-width="3"/>
      <path id="Path_339" data-name="Path 339" d="M896.116,657.673c-12.879,1.105-20.406-8.239-23.684-12.18-5.943-7.06-9.331-16-13.972-24.187-2.443-4.31-4.911-8.607-6.986-13.2-1.731-3.782-5.574-6.765-5.353-11.664.049-1.166,1.031-2.542.516-2.922-.246-.184-2.3.049-2.652-.147-1.265-.724-2.7-1.2-3.4-2.3-.037-.049-.037-.1-.061-.135-2.775,3.4-5.574,6.8-8.2,10.338-2.419,3.266-3.9,41.426-3.917,43.881-.012,4.371-1.252,12.155-18.073,12.155a86.315,86.315,0,0,0-8.656.466c-10.792.97-46.865,3.536-46.865-45.723,0-14.426,1.719-28.718,2.357-43.157.307-7.575.565-15.139,1.154-22.714.516-6.249-1.3-13.211,1.326-19.4.626-1.461,2.124-2.517,1.878-3.45-.11-.43-2-1.817-2.21-2.382-.749-2-1.743-3.781-1.829-5.844-.246-6.814.528-13.776,1.093-20.639a429.233,429.233,0,0,0,1.3-44.495c-.123-5.243-3.45-19.853,10.964-25.157m45.575-.393c18.11,6.52,16.6,26.434,15.888,32.892-.835,7.772-1.928,15.568-2.124,23.414-.061,3.07-.037,6.151,0,9.245,2.652-3.782,6.1-8.828,6.47-9.27,1.817-2.173,2.149-3,9.233,1.326-6.949-10.473.958-12.413,4.8-15.36,5.476-4.224,8.288-10.645,12.106-16.231,1.584-2.345,23.07-36.048,48.719-22.113a56.634,56.634,0,0,1,13.407,10.645c24.691,25.378,7.821,40.615,1.793,49.885-6.642,10.24-23.549,26.643-31.333,35.962-1.609,1.928-3.3,3.782-4.911,5.709.479.97.909,1.977,1.449,2.922,5.6,9.9,11.6,18.1,14.77,26.778,1.167,3.229,3.61,5.623,4.764,8.84.245.823,6.164,8.644,6.434,9.208.982,1.731,1.473,2.1-4.874,7.416,11.21-4.518,9.393,2.149,10.252,5.648,1.191,4.985,5.157,8.005,8.177,11.725,1.007,1.252,10.24,11.247,7.416,22.039" transform="translate(-67.075 -418.636)" fill="none" stroke="#bcbcbc" stroke-miterlimit="10" stroke-width="3"/>
      <path id="Path_340" data-name="Path 340" d="M1100.391,426.859c8.459,5.316,7.674,13.309,7.7,15.2.062,12.18-2.3,24.728-2.308,37.386-.013,16.023,1.891,32.2.552,48.645-.5,5.955.466,11.873-.2,17.828.049,1.522.6,18.9.638,19.976-.147,3.462.1,4.518-8.091,5.783,11.664,4.739,6.52,12.658,5.12,18.38-1.265,5.108-.945,24.765-.565,39.437.233,8.84,4.874,28.325-18.159,28.325-2.591,0-4.776-.111-8.656.049-10.817.43-20.811-.589-31.48-.43-13.776.184-15.912-3-14.5-7.858,3.646-12.474,1.007-26.054.724-38.8-.061-3.561.061-7.133.27-10.694a35.992,35.992,0,0,0-5.7-1.547c-7.845-1.387-15.593-.712-22.984-2.959-2.713-.847-5.464-.123-8.091-.958-.725-.27-8.447.331-8.914.282-.061,0-.111-.037-.172-.037-.516,6.372.405,12.757.516,19.117.061,3.413-3.119,6.532-2.357,9.871.626,2.812,4.948,5.378,4,8.3-1.056,3.266-4.445,3.5-3.29,6.581.786,2.075,3.241,3.61,3.229,6.065-.012,3.069,2.873,7.588.319,10.424m-69.444,2.824c-4.027-1.13-4.653-3.536-3.892-6.7,3.082-12.892-.037-26.606-.577-39.645-.565-14.4,1.731-28.718,2.357-43.157.307-7.575.565-15.126,1.154-22.714.528-6.237-1.289-13.2,1.351-19.387.626-1.473,2.124-2.529,1.879-3.45-.123-.442-2-1.817-2.222-2.382-.749-2.014-1.768-3.782-1.829-5.857-.258-6.814.516-13.751,1.093-20.615a429.234,429.234,0,0,0,1.3-44.5c-.147-6.458,3.647-26.962,18.933-26.962,8.005,0,16.01-.724,24.016-.724,35.937,0,30.449,17.864,30.425,20.885-.123,12.376-2.775,24.912-3.082,37.509-.319,13.4.589,26.839,0,40.358a78.57,78.57,0,0,1,8.214,1.019c3.438.675,7.318-.884,10.5,2.075.749.688,1.216,2.3,1.731,2.075.233-.11,1.1-1.977,1.424-2.161,1.105-.663,2.124-1.6,3.241-1.584,3.659.1,7.22,1.3,10.743,2.3,3.683,1.056,7.318,1.891,10.952,2.566.614-1.437,2.05-2.5,1.792-3.413-.123-.43-2.038-1.768-2.259-2.308-.786-1.977-1.817-3.708-1.928-5.758-.368-6.728.246-13.653.663-20.492.884-14.77.884-29.553.307-44.741-.233-5.636,1.314-22.113,12.72-26.5" transform="translate(-31.968 -419.199)" fill="none" stroke="#bcbcbc" stroke-miterlimit="10" stroke-width="3"/>
      <path id="Path_341" data-name="Path 341" d="M1084.115,654.79c-3.4-1.694-3.622-4.408-2.468-7.784,4.739-14.242,16.342-75.116,21.314-89.948,2.652-7.735,5.255-15.458,8.288-22.9,2.492-6.2,3.045-13.641,7.563-18.982,1.056-1.24,2.824-1.78,2.885-2.775.025-.466-1.314-2.456-1.338-3.069-.062-2.222-.43-4.285.16-6.348,1.94-6.728,4.923-13.211,7.575-19.632a292.962,292.962,0,0,0,13.837-41.855c2.2-8.754,7.01-13.751,12.511-16.538M1235,661.813c-3.916-.6-4.776-2.5-4.371-5.083,1.829-10.939-4.322-22.272-8.214-33.457-1.081-3.155-1.965-6.618-2.91-9.945-3.855-.688-7.637-1.928-11.455-2.112-6.114-.307-11.946,1.044-17.9.626-2.186-.184-19.6,3.07-21.83,2.885-9.834.724-9.049,41.6-19.313,46.2M1234.58,425.77c10.117,6.409,12.953,19.878,13.088,23.807.258,7.588.417,15.544,2.2,23.6,3.278,14.353,9.748,28.522,13.763,44.164,1.523,5.746,4.346,10.854,5.906,16.772.369,1.387,7.465,17.668,7.846,18.846,1.154,3.4,1.756,4.322-5.378,8.607,12.622.295,10.817,9.97,11.6,16.268,1.2,8.963,5.464,17,8.263,25.82,1.289,3.61-.982,8.1.724,11.553,1.412,2.922,6.372,4.7,6.3,8.251-.258,4.088-3.511,5.132-1.682,8.447,1.24,2.222,3.99,3.536,4.555,6.434.749,3.843,4.813,9.724,1.4,13.579M1197.526,562.3c1.093.1,8.889,8.594,9.97,8.68-.2-.663-3.929-9.773-4.125-10.424-1.879-6.237-11.554-29.062-12.388-31.186-.418-1.056-.676-2.247-1.044-3.352-1.658,4.862-3.389,9.687-5.439,14.353-2.406,5.476-3.45,11.48-5.881,16.845-.27.577-1.154,3.683-2.112,7.207C1179.4,564.068,1194.247,562.018,1197.526,562.3Z" transform="translate(4.779 -418.515)" fill="none" stroke="#bcbcbc" stroke-miterlimit="10" stroke-width="3"/>
      <path id="Path_342" data-name="Path 342" d="M1400.02,643.1c-5.3,6.618-18.073,13.223-48.989,13.223-1.891,0-3.708-.319-5.574-.295-1.142,1.08-3.094,1.9-6.52,2.235-4.113.393-8.5-.7-11.529-.724a76.109,76.109,0,0,0-8.632.467c-8.005.724-15.605.614-23.34.81-2.677.061-21.609,0-21.609-21.363,0-8.41-1.535-16.931-1.891-25.17-.565-14.4,1.731-28.73,2.358-43.169.307-7.575.565-15.126,1.154-22.714.528-6.237-1.289-13.2,1.351-19.4.626-1.449,2.124-2.5,1.878-3.438-.123-.442-2-1.829-2.21-2.382-.749-2.014-1.768-3.782-1.829-5.857-.258-6.814.516-13.764,1.093-20.627,1.216-14.783,1.3-29.491,1.3-44.5,0-24.138,6.249-26.741,11.774-26.741,10.424-.307,20.787-.626,31.174-.933,4.9-.172,14.512-1.326,19.252-.6,10.448,1.633,10.313,8.533,10.755,12.438,1.731,15.311-2.284,30.891-2.664,46.546-.38,16,1.142,32.07-.454,48.24-.577,5.856.295,11.713-.405,17.57-.147,1.473.626,18.577.564,19.669-.147,3.413.086,4.432-8.091,5.685,4,1.584,6.016,3.548,6.912,5.648.688,1.633-26.508,8.214-26.8,9.945-6.434,6.876,32.745-2.738,36.453-2.652,5.635.111,10.964-1.768,13.076-1.338a115.351,115.351,0,0,0,23.083,2.406c6.728,0,10.51,3.229,12.29,6.606" transform="translate(47.267 -419.261)" fill="none" stroke="#bcbcbc" stroke-miterlimit="10" stroke-width="3"/>
      <path id="Path_343" data-name="Path 343" d="M1444.073,658.6c-3.377-.086-6.741-.184-10.117-.27-2.775-.061-5.562-.209-8.337-.209-31.112,0-30.4-20.786-30.265-27.257a373.167,373.167,0,0,0-1.572-44.52c-.663-6.851-1.535-13.813-1.289-20.6.1-2.063,1.228-3.831,2.075-5.844.221-.565-.577-18.957-1.179-25.194-.675-7.576-.958-15.114-1.314-22.665-.712-14.4-3.291-28.693-2.615-43.059.258-5.046.946-10.215,1.51-15.4.872-8.128.2-31.1,29.614-31.1,7.305,0,14.562.061,22.137.626,34.722,0,30.228,22.739,30.228,27.11,0,2.456-2.787,4.015-3.671,6.09-1.314,3.094,2.517,3.315,3.708,6.581,1.056,2.922-3.855,5.525-4.555,8.337-.859,3.352,2.726,6.458,2.652,9.884-.2,8.152-1.94,1.743.209,9.847,1.5,5.66,3.033,20.394,3.192,23.807.061,1.093-.786,18.208-.626,19.682.786,5.881.614,49.873,1.093,65.883C1475.43,615.992,1475.21,658.621,1444.073,658.6Z" transform="translate(73.433 -419.08)" fill="none" stroke="#bcbcbc" stroke-miterlimit="10" stroke-width="3"/>
      <path id="Path_344" data-name="Path 344" d="M1589.469,579.175a4.613,4.613,0,0,1-4.027,2.333c-6.827,1.142-35.361-.147-42.8-1.645a8.779,8.779,0,0,0-1.51-.061c2.407,4.224.172,63.072.16,65.527-.025,4.371,5.857,11.7-6.556,12.892-4.113.393-8.5-.687-11.529-.724a79.2,79.2,0,0,0-8.656.454c-10.792.958-20.8.442-31.468,1.154-13.764.909-16.023-2.234-14.82-7.244,3.094-12.892,3.02-40.345,2.48-53.372-.564-14.4-.344-18.54,2.308-24.728.626-1.461,2.136-2.517,1.879-3.45-.111-.43-2.014-1.817-2.21-2.382-.749-2-1.756-3.781-1.829-5.844-.258-6.814.516-13.764,1.093-20.627,1.215-14.783-1.191-75.5-1.51-90.476-.147-6.446,1.633-13.481-1.093-19.866-1.031-2.406-2.333-4.506,1.817-6.483a26.264,26.264,0,0,1,10.682-1.682,2.474,2.474,0,0,1,3.426-1.645c7.821,2.345,16.035-.761,23.929-1.437,8.717-.724,17.336,1.24,26,1.78,4.543.295,9.086.528,13.616,1.117,3.745.491,7.98-1.019,11.578,1.387.847.577,1.437,1.928,1.989,1.719.27-.1,1.166-1.768,1.51-1.952,1.216-.626,2.333-1.5,3.561-1.535,4.076-.135,29.639.368,38.418-.012,9.393-.417,13.26,2.689,14.611,5.807m-2.578,54.109c-1.891,4.31-4.752,4.3-6.569,4.58a118.7,118.7,0,0,1-27.023.737c-9.245-.626-18.552.479-27.76-1.117-3.339-.577-6.729.135-10.068-.516-.295-.049-1.768,0-3.45.074-.012,9.466.331,18.969.233,28.5.049.049.11.049.16.086.712.565,1.215,1.915,1.657,1.694.209-.1.884-1.768,1.154-1.952.97-.663,1.8-1.535,2.812-1.584,3.278-.147,6.63.626,9.957,1.252,7.158,1.338,14.316,3.02,21.621,2.124,7.244-.9,10.6,2.161,11.946,5.439" transform="translate(89.364 -419.711)" fill="none" stroke="#bcbcbc" stroke-miterlimit="10" stroke-width="3"/>
      <path id="Path_345" data-name="Path 345" d="M1729.379,662.7c-5.869-.2-7.109-2.284-6.63-5.3,1.879-10.927-4.211-22.3-8.055-33.494-1.068-3.155-1.927-6.63-2.861-9.957-3.855-.712-7.637-1.964-11.455-2.161-6.114-.344-11.947.982-17.9.54-2.185-.2-19.608,2.971-21.842,2.787-10.461.724-9.135,46.9-21.621,46.521-4.125-.123-8.361-1.67-11.37-2.087a75.016,75.016,0,0,0-8.656-.553c-10.866-.27-20.762-1.9-31.468-2.259-13.825-.393-15.63-4.162-13.69-9.749,4.8-14.218,16.7-75.042,21.744-89.85,2.689-7.723,5.329-15.433,8.4-22.861,2.517-6.188,3.119-13.628,7.649-18.945,1.068-1.228,2.836-1.768,2.9-2.763.037-.467-1.3-2.468-1.326-3.069-.049-2.222-.405-4.3.2-6.348,1.977-6.728,5-13.186,7.674-19.6a293.115,293.115,0,0,0,14.034-41.782c3.2-12.45,11.652-17.275,19.829-18.908m69.517,1.842c12.855,5.316,16.219,21.29,16.342,25.636.221,7.588.344,15.544,2.087,23.61,3.2,14.365,9.613,28.571,13.542,44.237,1.5,5.746,4.3,10.878,5.832,16.808.368,1.387,7.379,17.7,7.76,18.883,1.142,3.4,1.731,4.334-5.415,8.582,12.622.356,10.768,10.019,11.529,16.33,1.166,8.963,5.378,17.042,8.14,25.857,1.265,3.622-1.019,8.091.663,11.554,1.4,2.934,6.348,4.727,6.249,8.275-.282,4.089-3.536,5.12-1.731,8.447,1.228,2.235,3.978,3.548,4.531,6.458.712,3.732,4.543,9.417,1.608,13.26M1690.1,562.8c1.093.111,8.853,8.643,9.921,8.729-.184-.663-3.88-9.785-4.076-10.449-1.842-6.249-11.418-29.111-12.241-31.247-.405-1.056-.663-2.247-1.031-3.352-1.682,4.85-3.438,9.663-5.513,14.328-2.431,5.464-3.511,11.468-5.955,16.821-.27.577-1.167,3.671-2.149,7.195C1671.968,564.485,1686.824,562.509,1690.1,562.8Z" transform="translate(113.327 -418.994)" fill="none" stroke="#bcbcbc" stroke-miterlimit="10" stroke-width="3"/>
    </g>
    <path id="Path_346" data-name="Path 346" d="M1569.768,503.63a120.809,120.809,0,0,1-1.228,54.023" transform="translate(303.693 19.147)" fill="none" stroke="#bcbcbc" stroke-miterlimit="10" stroke-width="3" stroke-dasharray="9 3"/>
    <path id="Path_347" data-name="Path 347" d="M1592.54,430.63a100.39,100.39,0,0,1,0,44.2" transform="translate(309.159 2.518)" fill="none" stroke="#bcbcbc" stroke-miterlimit="10" stroke-width="3" stroke-dasharray="9 3"/>
    <path id="Path_348" data-name="Path 348" d="M1381.224,562.63a75.031,75.031,0,0,1,2.456,14.733,55.7,55.7,0,0,1-1.228,18.417,49.443,49.443,0,0,1-4.911,12.278" transform="translate(262.574 32.587)" fill="none" stroke="#bcbcbc" stroke-miterlimit="10" stroke-width="3" stroke-dasharray="9 3"/>
    <path id="Path_349" data-name="Path 349" d="M1143.54,424.554a134.2,134.2,0,0,1,72.439,0" transform="translate(210.555 0)" fill="none" stroke="#bcbcbc" stroke-miterlimit="10" stroke-width="3" stroke-dasharray="9 3"/>
    <path id="Path_350" data-name="Path 350" d="M1208.54,619c11.05-1.228,23.414-2.2,35.606-3.683,9.221-1.13,22.1,1.228,28.239-3.683" transform="translate(224.961 43.748)" fill="none" stroke="#bcbcbc" stroke-miterlimit="10" stroke-width="3" stroke-dasharray="9 3"/>
    <path id="Path_351" data-name="Path 351" d="M1084.54,612.63c10.215,2.775,18.994,4.752,25.784,6.139,10.583,2.161,15.36,2.7,20.872,2.456a62.361,62.361,0,0,0,14.734-2.456" transform="translate(197.542 43.976)" fill="none" stroke="#bcbcbc" stroke-miterlimit="10" stroke-width="3" stroke-dasharray="9 3"/>
    <path id="Path_352" data-name="Path 352" d="M1024.54,423.132a115.847,115.847,0,0,1,18.417-2.456c6.888-.356,12.548-.6,19.644,1.228a49.311,49.311,0,0,1,9.822,3.683" transform="translate(184.311 0.194)" fill="none" stroke="#bcbcbc" stroke-miterlimit="10" stroke-width="3" stroke-dasharray="9 3"/>
    <path id="Path_353" data-name="Path 353" d="M1050.54,431.63" transform="translate(190.204 2.746)" fill="none" stroke="#bcbcbc" stroke-miterlimit="10" stroke-width="3" stroke-dasharray="9 3"/>
    <g id="Group_224" data-name="Group 224" transform="translate(1080.578 657.834)">
      <g id="Group_223" data-name="Group 223">
        <path id="Path_354" data-name="Path 354" d="M919.54,614.63c1.694.221,3.315.43,4.874.638" transform="translate(-919.54 -613.402)" fill="none" stroke="#bcbcbc" stroke-miterlimit="10" stroke-width="3"/>
        <path id="Path_355" data-name="Path 355" d="M929.69,615.96c5.955.81,10.743,1.486,14.549,2.038a120.2,120.2,0,0,0,15.961,1.228c6.618.074,9.675-.454,12.278-1.228.761-.221,1.486-.467,2.185-.737" transform="translate(-917.228 -613.099)" fill="none" stroke="#bcbcbc" stroke-miterlimit="10" stroke-width="3" stroke-dasharray="7.127 6.236"/>
        <path id="Path_356" data-name="Path 356" d="M969.16,616.233a32.568,32.568,0,0,0,4.162-2.6" transform="translate(-908.237 -613.63)" fill="none" stroke="#bcbcbc" stroke-miterlimit="10" stroke-width="3"/>
      </g>
    </g>
    <g id="Group_226" data-name="Group 226" transform="translate(1022.02 628.367)">
      <g id="Group_225" data-name="Group 225">
        <path id="Path_357" data-name="Path 357" d="M871.54,613.689a43.573,43.573,0,0,0,4.9-.319" transform="translate(-871.54 -584.222)" fill="none" stroke="#bcbcbc" stroke-miterlimit="10" stroke-width="3"/>
        <path id="Path_358" data-name="Path 358" d="M879.02,616.878a40.489,40.489,0,0,0,10.461-3.868,41.345,41.345,0,0,0,9.822-7.367,44.317,44.317,0,0,0,4.911-6.139c.909-1.3,1.915-2.873,2.971-4.715" transform="translate(-869.836 -588.455)" fill="none" stroke="#bcbcbc" stroke-miterlimit="10" stroke-width="3" stroke-dasharray="7.081 3.54"/>
        <path id="Path_359" data-name="Path 359" d="M902.81,594.062c.712-1.351,1.424-2.836,2.124-4.432" transform="translate(-864.417 -589.63)" fill="none" stroke="#bcbcbc" stroke-miterlimit="10" stroke-width="3"/>
      </g>
    </g>
    <path id="Path_360" data-name="Path 360" d="M769.54,425.315c4.924-1.2,9.122-1.965,12.278-2.456,5.586-.872,8.373-1.3,12.278-1.228a73.353,73.353,0,0,1,11.05,1.228,21.893,21.893,0,0,1,6.139,1.228,16.053,16.053,0,0,1,2.456,1.228" transform="translate(127.905 0.467)" fill="none" stroke="#bcbcbc" stroke-miterlimit="10" stroke-width="3" stroke-dasharray="8 4"/>
    <path id="Path_361" data-name="Path 361" d="M650.54,431.63a44,44,0,0,1,3.683,12.278A44.56,44.56,0,0,1,653,462.325" transform="translate(101.64 2.746)" fill="none" stroke="#bcbcbc" stroke-miterlimit="10" stroke-width="3" stroke-dasharray="3 4"/>
    <path id="Path_362" data-name="Path 362" d="M651.679,561.63a74.454,74.454,0,0,1,3.683,22.1,63.319,63.319,0,0,1-2.456,19.645,60.842,60.842,0,0,1-7.367,15.961" transform="translate(100.524 32.359)" fill="none" stroke="#bcbcbc" stroke-miterlimit="10" stroke-width="3" stroke-dasharray="9 2"/>
    <path id="Path_363" data-name="Path 363" d="M453.54,424.086a115.536,115.536,0,0,1,23.328-2.456,97.975,97.975,0,0,1,17.189,1.228,78.141,78.141,0,0,1,9.822,2.456" transform="translate(59.707 0.468)" fill="none" stroke="#bcbcbc" stroke-miterlimit="10" stroke-width="3" stroke-dasharray="9 2"/>
    <path id="Path_364" data-name="Path 364" d="M203.54,426.557c7.956-1.461,14.156-2.75,18.417-3.683a45.208,45.208,0,0,1,7.367-1.228c4.6-.319,8.128.282,13.506,1.228,2.848.5,6.63,1.265,11.05,2.456" transform="translate(2.76 0.452)" fill="none" stroke="#bcbcbc" stroke-miterlimit="10" stroke-width="3" stroke-dasharray="9 2"/>
    <path id="Path_365" data-name="Path 365" d="M361.04,614.13a61.728,61.728,0,0,1,12.032,2.05,17.852,17.852,0,0,0,7.219,1.031,44.921,44.921,0,0,0,4.813-1.031c2.517-.54,5.844-1.265,7.244-1.437" transform="translate(38.637 44.318)" fill="none" stroke="#bcbcbc" stroke-miterlimit="10" stroke-width="3" stroke-dasharray="4 1"/>
    <path id="Path_366" data-name="Path 366" d="M1643.5,422.961c9.822,0,17.766-2.308,24.556-2.456a166.829,166.829,0,0,1,23.328,1.228c5.844.712,10.841,1.633,14.733,2.456" transform="translate(320.767 0.205)" fill="none" stroke="#bcbcbc" stroke-miterlimit="10" stroke-width="3" stroke-dasharray="8 3"/>
    <path id="Path_367" data-name="Path 367" d="M1702.5,620.094c9.147,3.229,16.133,3.155,20.872,2.456,3.646-.54,4.125-1.179,11.05-2.456,8.791-1.621,10.841-1.117,15.961-2.456a44.725,44.725,0,0,0,13.506-6.139" transform="translate(334.207 43.719)" fill="none" stroke="#bcbcbc" stroke-miterlimit="10" stroke-width="3" stroke-dasharray="8 3"/>
  </g>
</svg>
