<svg xmlns="http://www.w3.org/2000/svg" width="34" height="34" viewBox="0 0 34 34"><path d="M165.26,60.92a17,17,0,1,0,17,17A17,17,0,0,0,165.26,60.92Zm-9.34,20.04a.7.7,0,1,1-1.4,0V79.48a.7.7,0,1,1,1.4,0Zm2.87,0a.722.722,0,0,1-.71.75.712.712,0,0,1-.69-.75V77.98a.712.712,0,0,1,.69-.75.722.722,0,0,1,.71.75Zm3.24,0a.735.735,0,1,1-1.47,0V76.49a.735.735,0,1,1,1.47,0Zm2.8-.19c0,.53-.29.94-.7.94s-.7-.41-.7-.94V75.18c0-.51.29-.92.7-.92s.7.41.7.92Zm8.56,1h-7.08V72.51a5.267,5.267,0,0,1,6.24,4.14,2.089,2.089,0,0,1,.84-.16,2.64,2.64,0,0,1,0,5.28Z" transform="translate(-148.26 -60.92)" fill="#bcbcbc"/></svg>