<svg xmlns="http://www.w3.org/2000/svg" width="34" height="34" viewBox="0 0 34 34"><g transform="translate(-951.432 -993.936)"><path d="M977.014,996.231a16.82,16.82,0,0,1,6.1,6.108,16.53,16.53,0,0,1,2.313,8.6,17.04,17.04,0,0,1-2.313,8.6,16.979,16.979,0,1,1-6.1-23.3Zm2.663,12.958a1.558,1.558,0,0,0,.991-.72,1.465,1.465,0,0,0,.175-1.206,1.662,1.662,0,0,0-.719-.992,23.289,23.289,0,0,0-7.27-2.645,34.069,34.069,0,0,0-8.009-.7,29.374,29.374,0,0,0-7.037,1.05,1.544,1.544,0,0,0-.933.778,1.613,1.613,0,0,0-.136,1.226,1.475,1.475,0,0,0,.758.952,1.5,1.5,0,0,0,1.205.117,24.293,24.293,0,0,1,6.259-.934,30.562,30.562,0,0,1,7.115.583,20.307,20.307,0,0,1,6.415,2.3A1.488,1.488,0,0,0,979.678,1009.189Zm-1.205,3.637a1.4,1.4,0,0,0-.6-.836,20.84,20.84,0,0,0-5.89-2.412,26.547,26.547,0,0,0-6.726-.778,24.178,24.178,0,0,0-6.512.934,1.24,1.24,0,0,0-.758.642,1.352,1.352,0,0,0,.544,1.809,1.221,1.221,0,0,0,.991.117,20.535,20.535,0,0,1,5.754-.857,23.346,23.346,0,0,1,6.007.7,18.206,18.206,0,0,1,5.19,2.14,1.3,1.3,0,0,0,1.011.136,1.256,1.256,0,0,0,.816-.6A1.185,1.185,0,0,0,978.472,1012.827Zm-2.236,5.66a1.011,1.011,0,0,0,.117-.817,1.121,1.121,0,0,0-.467-.661q-6.765-4.122-16.524-1.906a1.1,1.1,0,0,0-.661.486,1.06,1.06,0,0,0,.33,1.459.958.958,0,0,0,.8.117q8.9-2.023,14.93,1.673a1.179,1.179,0,0,0,.816.1,1,1,0,0,0,.661-.486Z" transform="translate(0)" fill="#bcbcbc"/></g></svg>