<svg xmlns="http://www.w3.org/2000/svg" width="34" height="34" viewBox="0 0 34 34"><path d="M17,34A17,17,0,0,1,10.383,1.336,17,17,0,0,1,23.617,32.664,16.893,16.893,0,0,1,17,34ZM9.045,15.033c-.019,0-.03,0-.034.01a4.277,4.277,0,0,0,.428,1.608,3.834,3.834,0,0,0,1.629,1.537l.583.276-.69.011c-.427,0-.581.006-.629.069-.03.04-.015.1.011.2a3.589,3.589,0,0,0,2.224,1.969l.737.252-.642.384a6.742,6.742,0,0,1-3.187.889,3.6,3.6,0,0,0-.975.1,8.974,8.974,0,0,0,2.295,1.056,9.614,9.614,0,0,0,2.833.414A9.907,9.907,0,0,0,18.6,22.5a10.388,10.388,0,0,0,3.96-4.658,12.439,12.439,0,0,0,.808-3.6c0-.556.039-.628.7-1.285a7.84,7.84,0,0,0,.833-.924c.044-.084.069-.137.055-.16s-.018-.014-.039-.014A2.7,2.7,0,0,0,24.4,12a3.34,3.34,0,0,1-.834.232c-.053,0-.084-.012-.1-.037-.026-.059.059-.189.275-.422a3.506,3.506,0,0,0,.809-1.285c0-.007-.007-.011-.02-.011a1.18,1.18,0,0,0-.361.143,6.645,6.645,0,0,1-1.047.408l-.642.2-.583-.4a4.8,4.8,0,0,0-1.01-.528,3.711,3.711,0,0,0-.951-.112,3.606,3.606,0,0,0-1.131.161,3.429,3.429,0,0,0-2.319,3.457l.036.588-.595-.072a9.7,9.7,0,0,1-5.66-2.785l-.785-.78-.2.576a3.475,3.475,0,0,0,.738,3.553c.215.228.3.361.279.419-.01.024-.039.035-.088.035a2.407,2.407,0,0,1-.643-.178A2.417,2.417,0,0,0,9.045,15.033Z" transform="translate(0 0)" fill="#bcbcbc"/></svg>