<svg xmlns="http://www.w3.org/2000/svg" width="28" height="32" viewBox="0 0 28 32"><g transform="translate(-882.451 -1353.599)"><path d="M910.314,1380.609a8.005,8.005,0,0,1-.712,2.873,3.279,3.279,0,0,1-1.521,1.446,4.075,4.075,0,0,1-1.136.348q-.6.091-2.175.2-1.695.073-6.968.11t-7.6-.037q-2.33-.074-3.561-.219a7.324,7.324,0,0,1-1.944-.494,2.928,2.928,0,0,1-1.136-.934,5.509,5.509,0,0,1-.481-1.08,8.956,8.956,0,0,1-.366-1.336,39.846,39.846,0,0,1-.25-5.892,26.733,26.733,0,0,1,.443-5.27,3.94,3.94,0,0,1,1.213-2.158,4.091,4.091,0,0,1,2.348-.86q1.481-.128,4.909-.2t7.122-.037a67.919,67.919,0,0,1,8.855.384,3.243,3.243,0,0,1,2,1.317,6.624,6.624,0,0,1,.924,2.947q.116.915.154,3.806A41.922,41.922,0,0,1,910.314,1380.609Zm-19.634-8.783v-1.684h-5.89v1.684h1.963v10.246h1.886v-10.246h2.04Zm-2.964-18.189.924-.037a2.893,2.893,0,0,1,.982.073q.058.074.674,2.269t.654,2.2a19.015,19.015,0,0,0,.539-1.83l.808-2.709h.962c.41,0,.68.007.808.019s.179.043.154.092l-2.31,6.991v4.9h-1.886v-4.94Zm7.661,19.543h-1.771v6.771l-.424.4a1.373,1.373,0,0,1-.52.366.356.356,0,0,1-.327-.11,1.4,1.4,0,0,1-.135-.75q-.02-.639-.019-3.056v-3.622H890.41v3.843q0,2.306.038,3.11a4.787,4.787,0,0,0,.115,1.318,1.042,1.042,0,0,0,.366.512,1.355,1.355,0,0,0,.751.2,1.609,1.609,0,0,0,.789-.129,3.74,3.74,0,0,0,.712-.512l.424-.366v.915h1.771v-8.892Zm-1.251-8.857a3.072,3.072,0,0,1-.173-1.025q-.039-.549-.038-2.141t.038-2.178a3.29,3.29,0,0,1,.173-1.044,2.83,2.83,0,0,1,.443-.677,2.107,2.107,0,0,1,1.136-.64,2.965,2.965,0,0,1,1.424.018,2.224,2.224,0,0,1,1.136.659,2.42,2.42,0,0,1,.424.677,3.934,3.934,0,0,1,.154,1.044q.038.586.039,2.122,0,1.721-.039,2.251a5.805,5.805,0,0,1-.115.86,2.542,2.542,0,0,1-.635.842,2.4,2.4,0,0,1-.943.549,2.507,2.507,0,0,1-.808.129,3.808,3.808,0,0,1-.809-.166,1.979,1.979,0,0,1-.924-.622A2.683,2.683,0,0,1,894.126,1364.323Zm1.521-3.184q0,1.574.039,2.123a1.713,1.713,0,0,0,.173.805.609.609,0,0,0,.52.183,1.2,1.2,0,0,0,.366-.056.4.4,0,0,0,.25-.275,3.724,3.724,0,0,0,.116-.842q.038-.548.038-1.9a15.116,15.116,0,0,0-.115-2.745.735.735,0,0,0-1.27,0A14.393,14.393,0,0,0,895.646,1361.139Zm6.121,13.761a3.183,3.183,0,0,0-.346-1.243,1.358,1.358,0,0,0-.5-.458,1.294,1.294,0,0,0-.635-.2,1.758,1.758,0,0,0-.674.166,2.29,2.29,0,0,0-.693.458l-.462.365v-3.843h-1.694v11.931h1.694v-.805l.385.329a2.7,2.7,0,0,0,.693.457,1.862,1.862,0,0,0,.789.11,1.722,1.722,0,0,0,.751-.166,1.341,1.341,0,0,0,.5-.586,2.3,2.3,0,0,0,.193-.769q.038-.439.039-2.6C901.831,1376.464,901.818,1375.412,901.767,1374.9Zm-1.867-.018a3.325,3.325,0,0,1,.135.9v2.049l-.039,2.489-.27.22a.689.689,0,0,1-.4.183,1.271,1.271,0,0,1-.52-.183l-.346-.183V1374.9l.424-.22c.179-.072.308-.122.385-.146a.484.484,0,0,1,.308.037A.507.507,0,0,1,899.9,1374.882Zm.4-10.687q-.039-.677-.038-3.531l-.038-4.062H902v3.733q0,2.416.038,3.093a1.869,1.869,0,0,0,.115.75q.347.257.924-.329l.346-.328V1356.6h1.771v9h-1.771v-.915l-.462.366a2.386,2.386,0,0,1-.712.512,1.994,1.994,0,0,1-.712.11,1.362,1.362,0,0,1-.654-.128,1.183,1.183,0,0,1-.423-.458A2.572,2.572,0,0,1,900.3,1364.2Zm7.854,14.767H906.31v.549a2.478,2.478,0,0,1-.077.714.763.763,0,0,1-.327.4.6.6,0,0,1-.539.073.888.888,0,0,1-.481-.384,1.822,1.822,0,0,1-.115-.476,7.71,7.71,0,0,1-.038-.915V1377.9h3.388v-1.318a7.149,7.149,0,0,0-.154-1.774,2.427,2.427,0,0,0-.558-.971,2.455,2.455,0,0,0-.847-.622,2.39,2.39,0,0,0-1.059-.146,2.92,2.92,0,0,0-.924.129,2.333,2.333,0,0,0-.77.458,2.006,2.006,0,0,0-.558.732,4.24,4.24,0,0,0-.25,1.207q-.039.733-.038,2.307.038,1.463.077,1.995a2.054,2.054,0,0,0,.154.75,2.307,2.307,0,0,0,1.193,1.281,2.354,2.354,0,0,0,1.155.255A3.145,3.145,0,0,0,906.7,1382a2.119,2.119,0,0,0,1.02-.823,3,3,0,0,0,.366-1.446Zm-3.426-2.415v-.659a1.828,1.828,0,0,1,.25-1.135.793.793,0,0,1,.808-.182c.372.072.558.512.558,1.317v.659Z" fill="#bcbcbc"/></g></svg>